<svg width="120" height="43" viewBox="0 0 120 43" fill="none" xmlns="http://www.w3.org/2000/svg">
<path d="M110.399 16.585L107.49 23.7216L104.581 16.585H100.589L105.429 26.9594C105.663 27.4423 105.496 27.8255 104.847 27.8255H101.187V30.8326H105.161C107.166 30.8326 108.079 30.1474 108.604 29.0491L114.147 16.6106L110.399 16.585Z" fill="white"/>
<path d="M12.151 24.7927C10.4057 24.7927 9.36583 23.7214 9.36583 22.193C9.36583 20.6645 10.4072 19.5919 12.151 19.5919C13.4788 19.5919 14.4154 20.23 14.7528 21.2486H18.3451C17.9277 18.2928 15.5396 16.3555 12.151 16.3555C8.42921 16.3555 5.85352 18.7258 5.85352 22.1958C5.85352 25.6659 8.42921 28.0362 12.151 28.0362C15.5338 28.0362 17.9539 26.0733 18.3699 23.1175H14.779C14.4416 24.1288 13.5035 24.7927 12.151 24.7927Z" fill="white"/>
<path d="M55.0986 16.4329C54.378 16.4421 53.6671 16.5969 53.0104 16.8876C52.3538 17.1783 51.7654 17.5987 51.2823 18.1223C50.606 17.0753 49.4425 16.4329 47.5009 16.4329C46.8653 16.4257 46.2361 16.5582 45.6597 16.8208C45.0833 17.0834 44.5743 17.4692 44.1704 17.95V16.5853H40.709V27.8259H44.1704V22.0909C44.1704 20.128 45.1594 19.6437 46.4858 19.6437C47.8907 19.6437 48.6673 20.2818 48.6673 22.0909V27.8259H52.1287V22.0909C52.1287 20.128 53.1177 19.6437 54.4441 19.6437C55.8505 19.6437 56.6257 20.2818 56.6257 22.0909V27.8259H60.0871V22.0909C60.0972 18.9343 58.9265 16.4329 55.0986 16.4329Z" fill="white"/>
<path d="M67.8346 16.3555C64.1128 16.3555 61.5371 18.7258 61.5371 22.1958C61.5371 25.6659 64.1128 28.0362 67.8346 28.0362C71.5563 28.0362 74.1058 25.6659 74.1058 22.1958C74.1058 18.7258 71.5548 16.3555 67.8346 16.3555ZM67.8346 24.7927C66.0893 24.7927 65.0494 23.7214 65.0494 22.193C65.0494 20.6645 66.0908 19.5919 67.8346 19.5919C69.5522 19.5919 70.5979 20.6631 70.5979 22.193C70.5979 23.7229 69.5522 24.7927 67.8346 24.7927Z" fill="white"/>
<path d="M81.9757 16.433C81.4153 16.418 80.8585 16.5253 80.3456 16.747C79.8327 16.9688 79.3766 17.2994 79.0102 17.7151V16.5854H75.5488V27.826H79.0102V22.091C79.0102 20.1281 79.9992 19.6438 81.3256 19.6438C82.7305 19.6438 83.5072 20.282 83.5072 22.091V27.826H86.9686V22.091C86.9729 18.9344 85.8022 16.433 81.9757 16.433Z" fill="white"/>
<path d="M97.0452 24.124C96.6583 24.7252 95.857 24.9716 94.6978 24.9716C93.2929 24.9716 92.2254 24.2052 91.8749 23.0343H100.969V22.1939C100.969 18.7267 98.4181 16.3535 94.6978 16.3535C90.9775 16.3535 88.4004 18.7238 88.4004 22.1939C88.4004 25.6639 90.9761 28.0342 94.6978 28.0342C97.7011 28.0342 100.224 26.5157 100.774 24.1283L97.0452 24.124ZM94.6978 19.1213C95.9341 19.1213 97.0786 19.7623 97.4524 20.9489H91.9171C92.253 19.7965 93.4427 19.1213 94.6978 19.1213Z" fill="white"/>
<path d="M33.094 23.3942L33.5231 23.4256C34.7986 27.3486 33.0024 32.0522 29.3359 33.9297V33.971C32.9457 33.6505 37.6462 30.0451 37.9226 24.4897L38.4549 24.4199V23.5538C37.3699 22.9669 36.6602 20.5253 38.18 19.2276C37.9211 15.9784 36.4827 12.7363 34.6531 10.4671L31.375 8.59961L30.8761 9.62951C30.4389 9.87389 30.0852 10.2395 29.8595 10.6802C29.6339 11.121 29.5463 11.6173 29.6079 12.1067C29.765 13.2861 30.626 14.0084 32.2054 14.2434C33.0184 14.3616 33.3166 14.7021 33.462 15.1593C33.6074 15.6422 33.5653 16.1323 33.1711 16.4157L33.2351 16.6208C33.9463 16.665 34.3143 17.0482 34.4626 17.608C34.6386 18.2704 34.5819 18.816 34.0263 19.192L34.051 19.3658C34.7084 19.5838 35.0691 20.2205 35.0894 20.8572C35.1113 21.5211 34.611 22.1977 33.8605 22.484C33.6133 22.578 32.8744 22.7276 32.8744 22.7276L33.094 23.3942ZM32.265 13.2591C31.2804 13.393 30.6245 12.8317 30.5082 12.0098C30.3802 11.1024 30.8601 10.3945 31.8447 10.262C32.7901 10.1338 33.4853 10.6893 33.6132 11.591C33.7354 12.4186 33.2177 13.1323 32.265 13.2591Z" fill="#FF159A"/>
<path d="M31.0708 24.2045C31.0708 22.1661 29.6383 20.8641 26.984 20.8641H23.4441C23.0281 20.8641 22.5904 20.5963 22.5904 20.0863C22.5904 19.6276 23.0092 19.3883 23.4266 19.3883H30.7465V16.585H23.732C20.8233 16.585 19.542 18.1149 19.542 20.102C19.542 21.9382 20.8175 23.468 23.732 23.468H27.2633C27.3699 23.4642 27.4761 23.482 27.5753 23.5204C27.6745 23.5588 27.7645 23.6169 27.8397 23.691C27.9148 23.7652 27.9735 23.8537 28.012 23.9512C28.0504 24.0486 28.0679 24.1528 28.0632 24.2572C28.0613 24.3613 28.0382 24.4639 27.9951 24.559C27.9519 24.6542 27.8897 24.7398 27.8121 24.8109C27.7345 24.882 27.6431 24.9371 27.5433 24.9729C27.4435 25.0087 27.3374 25.0245 27.2313 25.0193H19.9027V27.8255H26.9811C29.6383 27.8255 31.0708 26.4993 31.0708 24.2045Z" fill="white"/>
</svg>
